<svg xmlns="http://www.w3.org/2000/svg" width="256" height="256" viewBox="0 0 100 100"><rect width="100" height="100" rx="20" fill="#041635"></rect><path fill="#fff" d="M70.07 25.93Q79.07 25.93 84.33 31.15Q89.60 36.37 89.60 46.63L89.60 46.63L89.60 74.08L80.96 74.08L80.96 47.62Q80.96 40.69 77.76 37.18Q74.57 33.67 68.63 33.67L68.63 33.67Q62.06 33.67 58.19 37.76Q54.32 41.86 54.32 49.51L54.32 49.51L54.32 74.08L45.68 74.08L45.68 47.62Q45.68 40.69 42.48 37.18Q39.29 33.67 33.35 33.67L33.35 33.67Q26.78 33.67 22.91 37.76Q19.04 41.86 19.04 49.51L19.04 49.51L19.04 74.08L10.40 74.08L10.40 26.38L18.68 26.38L18.68 33.49Q21.29 29.80 25.52 27.86Q29.75 25.93 35.15 25.93L35.15 25.93Q40.73 25.93 45.05 28.18Q49.37 30.43 51.71 34.75L51.71 34.75Q54.41 30.61 59.23 28.27Q64.04 25.93 70.07 25.93L70.07 25.93Z"></path></svg>